<svg xmlns="http://www.w3.org/2000/svg">
	<symbol id="social-telegram" viewBox="0 0 21 19">
		<path fill-rule="evenodd" clip-rule="evenodd" d="M1.43784 8.26325C7.07383 5.73103 10.8258 4.04844 12.7098 3.23213C18.0721 0.916484 19.1992 0.516659 19.9239 0.5C20.0849 0.5 20.4392 0.533319 20.6807 0.733231C20.8739 0.899824 20.9222 1.1164 20.9545 1.28299C20.9867 1.44958 21.0189 1.79943 20.9867 2.06598C20.6968 5.23125 19.4408 12.9112 18.7967 16.443C18.5229 17.9423 17.9915 18.4421 17.4762 18.4921C16.349 18.592 15.4956 17.7258 14.4167 16.9927C12.7098 15.8433 11.7597 15.1269 10.1012 13.9941C8.18492 12.6946 9.42484 11.9783 10.5198 10.8121C10.8097 10.5123 15.7532 5.84765 15.8499 5.43117C15.866 5.38119 15.866 5.18127 15.7532 5.08132C15.6405 4.98136 15.4795 5.01468 15.3507 5.048C15.1735 5.08132 12.4683 6.94716 7.20265 10.6289C6.42972 11.1786 5.73729 11.4452 5.10928 11.4285C4.41686 11.4119 3.09643 11.0287 2.09806 10.6955C0.890347 10.2957 -0.0758222 10.0791 0.0046919 9.37943C0.0530003 9.01292 0.536085 8.64642 1.43784 8.26325Z"/>
	</symbol>

	<symbol id="social-vk" viewBox="0 0 26 15">
		<path d="M24.4954 14.4989H21.7581C20.7229 14.4989 20.411 13.7085 18.5553 11.9581C16.9336 10.4848 16.2486 10.3016 15.8384 10.3016C15.271 10.3016 15.1163 10.4486 15.1163 11.1847V13.505C15.1163 14.1325 14.9004 14.5 13.1611 14.5C11.4737 14.3931 9.83734 13.9099 8.38688 13.0902C6.93642 12.2704 5.71331 11.1375 4.81831 9.78488C2.69396 7.29122 1.21541 4.36515 0.5 1.23888C0.5 0.852173 0.655939 0.501649 1.43803 0.501649H4.17296C4.87589 0.501649 5.12899 0.796768 5.40488 1.47859C6.73276 5.16249 8.99868 8.36696 9.91872 8.36696C10.2714 8.36696 10.4249 8.21996 10.4249 7.39114V3.59644C10.3086 1.8653 9.33335 1.71944 9.33335 1.09302C9.34568 0.927752 9.42588 0.77353 9.55691 0.663108C9.68794 0.552687 9.85947 0.494766 10.0351 0.501649H14.3342C14.922 0.501649 15.1163 0.777545 15.1163 1.44015V6.56232C15.1163 7.11525 15.3682 7.29842 15.5457 7.29842C15.8984 7.29842 16.1695 7.11525 16.816 6.50692C18.2013 4.91334 19.3335 3.13839 20.1771 1.23775C20.2631 1.0093 20.4261 0.813719 20.6412 0.680969C20.8564 0.548219 21.1118 0.485625 21.3682 0.50278H24.1044C24.9249 0.50278 25.0988 0.889487 24.9249 1.44128C23.9294 3.5425 22.6981 5.53717 21.2519 7.39114C20.9568 7.81517 20.8393 8.03566 21.2519 8.53317C21.523 8.91988 22.4826 9.6752 23.1268 10.3932C24.0648 11.2752 24.8433 12.2951 25.4323 13.4122C25.6674 14.1314 25.2763 14.4989 24.4954 14.4989Z"/>
	</symbol>


	<symbol id="privilege-present" viewBox="0 0 48 48" fill="none">
		<path d="M17.8594 6.45L21.1219 12H21H14.25C12.1781 12 10.5 10.3219 10.5 8.25C10.5 6.17812 12.1781 4.5 14.25 4.5H14.4562C15.8531 4.5 17.1562 5.24063 17.8594 6.45ZM6 8.25C6 9.6 6.32812 10.875 6.9 12H3C1.34062 12 0 13.3406 0 15V21C0 22.6594 1.34062 24 3 24H45C46.6594 24 48 22.6594 48 21V15C48 13.3406 46.6594 12 45 12H41.1C41.6719 10.875 42 9.6 42 8.25C42 3.69375 38.3063 0 33.75 0H33.5437C30.5531 0 27.7781 1.58438 26.2594 4.1625L24 8.01562L21.7406 4.17188C20.2219 1.58437 17.4469 0 14.4562 0H14.25C9.69375 0 6 3.69375 6 8.25ZM37.5 8.25C37.5 10.3219 35.8219 12 33.75 12H27H26.8781L30.1406 6.45C30.8531 5.24063 32.1469 4.5 33.5437 4.5H33.75C35.8219 4.5 37.5 6.17812 37.5 8.25ZM3 27V43.5C3 45.9844 5.01562 48 7.5 48H21V27H3ZM27 48H40.5C42.9844 48 45 45.9844 45 43.5V27H27V48Z" fill="url(#paint0_linear_3_350)"/>
		<defs>
			<linearGradient id="paint0_linear_3_350" x1="21.3147" y1="48" x2="51.52" y2="32.3379" gradientUnits="userSpaceOnUse">
				<stop stop-color="#FBC81F"/>
				<stop offset="0.885" stop-color="#FFAF2E"/>
			</linearGradient>
		</defs>
	</symbol>
		

	<symbol id="privilege-present-iron" viewBox="0 0 48 48" fill="none">
		<path d="M17.8594 6.45L21.1219 12H21H14.25C12.1781 12 10.5 10.3219 10.5 8.25C10.5 6.17812 12.1781 4.5 14.25 4.5H14.4562C15.8531 4.5 17.1562 5.24063 17.8594 6.45ZM6 8.25C6 9.6 6.32812 10.875 6.9 12H3C1.34062 12 0 13.3406 0 15V21C0 22.6594 1.34062 24 3 24H45C46.6594 24 48 22.6594 48 21V15C48 13.3406 46.6594 12 45 12H41.1C41.6719 10.875 42 9.6 42 8.25C42 3.69375 38.3063 0 33.75 0H33.5437C30.5531 0 27.7781 1.58438 26.2594 4.1625L24 8.01562L21.7406 4.17188C20.2219 1.58437 17.4469 0 14.4562 0H14.25C9.69375 0 6 3.69375 6 8.25ZM37.5 8.25C37.5 10.3219 35.8219 12 33.75 12H27H26.8781L30.1406 6.45C30.8531 5.24063 32.1469 4.5 33.5437 4.5H33.75C35.8219 4.5 37.5 6.17812 37.5 8.25ZM3 27V43.5C3 45.9844 5.01562 48 7.5 48H21V27H3ZM27 48H40.5C42.9844 48 45 45.9844 45 43.5V27H27V48Z" fill="#Feae2d"/>
	</symbol>
</svg> 